<?xml version="1.0" standalone="no"?>
<!DOCTYPE svg PUBLIC "-//W3C//DTD SVG 20010904//EN"
 "http://www.w3.org/TR/2001/REC-SVG-20010904/DTD/svg10.dtd">
<svg version="1.0" xmlns="http://www.w3.org/2000/svg"
 width="272.000000pt" height="272.000000pt" viewBox="0 0 272.000000 272.000000"
 preserveAspectRatio="xMidYMid meet">
<metadata>
Created by potrace 1.11, written by Peter Selinger 2001-2013
</metadata>
<g transform="translate(0.000000,272.000000) scale(0.100000,-0.100000)"
fill="#000000" stroke="none">
<path d="M523 2686 c-166 -62 -295 -204 -332 -366 -7 -29 -11 -313 -11 -785 0
-799 -1 -786 55 -896 55 -110 148 -196 266 -247 64 -27 66 -27 349 -32 l285
-5 106 -169 c58 -94 110 -171 115 -173 5 -1 58 76 117 172 l108 174 287 3
c279 3 289 4 342 27 165 74 273 196 315 358 22 85 22 1491 0 1576 -45 173
-163 302 -331 363 l-65 24 -772 -1 -772 0 -62 -23z m343 -251 c21 -21 25 -34
23 -73 -2 -46 1 -52 102 -187 72 -96 110 -139 122 -137 23 4 74 -24 87 -47 5
-11 10 -30 10 -43 0 -19 34 -46 176 -142 165 -111 178 -118 207 -109 30 8 38
23 161 300 l129 292 -17 35 c-20 42 -14 75 20 107 68 64 170 -7 144 -99 -11
-35 -8 -43 70 -188 78 -145 83 -152 122 -163 97 -30 77 -171 -24 -171 -52 0
-88 35 -88 85 0 19 5 43 11 53 9 14 -4 45 -70 167 -45 82 -85 153 -89 157 -15
15 -29 -10 -96 -162 -37 -85 -95 -217 -129 -294 -51 -116 -59 -141 -49 -157
13 -20 16 -68 6 -94 -11 -26 -62 -48 -101 -40 -40 7 -77 57 -68 92 4 19 -18
37 -167 138 -160 109 -174 117 -202 108 -49 -15 -94 2 -113 43 -14 28 -15 41
-6 64 10 28 6 36 -92 168 -56 77 -107 142 -112 145 -5 3 -14 3 -20 -1 -6 -4
-52 -137 -103 -296 -75 -232 -91 -292 -82 -305 38 -52 36 -94 -4 -132 -55 -51
-148 -10 -148 65 0 37 22 69 62 89 20 10 37 54 117 300 l92 287 -19 39 c-23
47 -17 83 19 111 36 28 88 26 119 -5z m-262 -1089 c18 -8 46 -31 62 -52 130
-171 293 -284 485 -336 119 -32 300 -32 417 0 191 52 357 166 486 336 34 45
86 70 127 61 34 -8 79 -58 79 -88 -1 -67 -119 -222 -243 -322 -209 -167 -486
-245 -769 -217 -255 26 -450 117 -621 288 -90 90 -153 180 -163 231 -7 39 15
79 57 100 31 16 42 16 83 -1z"/>
</g>
</svg>
